HIERARCHY
ROOT Hips
{
  OFFSET 29.6566 99.0794 -21.4601
  CHANNELS 6 Xposition Yposition Zposition Zrotation Xrotation Yrotation
  JOINT spine
  {
    OFFSET 0 8.30104 0.477352
    CHANNELS 3 Zrotation Xrotation Yrotation
    JOINT spine1
    {
      OFFSET 0 10.4565 0
      CHANNELS 3 Zrotation Xrotation Yrotation
      JOINT spine2
      {
        OFFSET 0 10.0192 0
        CHANNELS 3 Zrotation Xrotation Yrotation
        JOINT Neck
        {
          OFFSET 0 25.7235 1.22641
          CHANNELS 3 Zrotation Xrotation Yrotation
          JOINT Head
          {
            OFFSET 0 7.77175 0
            CHANNELS 3 Zrotation Xrotation Yrotation
            End Site
            {
              OFFSET 0 18.812 -6.20394
            }
          }
        }
        JOINT RightShoulder
        {
          OFFSET -4.2188 10.82 -0.587439
          CHANNELS 3 Zrotation Xrotation Yrotation
          JOINT RightArm
          {
            OFFSET 0 14.1914 0
            CHANNELS 3 Zrotation Xrotation Yrotation
            JOINT RightArmRoll
            {
              OFFSET 0 7.16408 0
              CHANNELS 3 Zrotation Xrotation Yrotation
              JOINT RightForeArm
              {
                OFFSET 0 20.8665 0
                CHANNELS 3 Zrotation Xrotation Yrotation
                JOINT RightForeArmRoll
                {
                  OFFSET 0 8.03921 0
                  CHANNELS 3 Zrotation Xrotation Yrotation
                  JOINT RightHand
                  {
                    OFFSET 0 16.133 0
                    CHANNELS 3 Zrotation Xrotation Yrotation
                    End Site
                    {
                      OFFSET 0 0 0
                    }
                  }
                }
              }
            }
          }
        }
        JOINT LeftShoulder
        {
          OFFSET 4.2188 10.82 -0.587439
          CHANNELS 3 Zrotation Xrotation Yrotation
          JOINT LeftArm
          {
            OFFSET 0 14.1914 0
            CHANNELS 3 Zrotation Xrotation Yrotation
            JOINT LeftArmRoll
            {
              OFFSET 0 7.16409 0
              CHANNELS 3 Zrotation Xrotation Yrotation
              JOINT LeftForeArm
              {
                OFFSET 0 20.8665 0
                CHANNELS 3 Zrotation Xrotation Yrotation
                JOINT LeftForeArmRoll
                {
                  OFFSET 0 8.03921 0
                  CHANNELS 3 Zrotation Xrotation Yrotation
                  JOINT LeftHand
                  {
                    OFFSET 0 16.133 0
                    CHANNELS 3 Zrotation Xrotation Yrotation
                    End Site
                    {
                      OFFSET 0 0 0
                    }
                  }
                }
              }
            }
          }
        }
      }
    }
  }
  JOINT RightUpLeg
  {
    OFFSET -7.35773 -1.34921 -1.13182
    CHANNELS 3 Zrotation Xrotation Yrotation
    JOINT RightUpLegRoll
    {
      OFFSET 0 18.9168 0
      CHANNELS 3 Zrotation Xrotation Yrotation
      JOINT RightLeg
      {
        OFFSET 0 -23.4256 0
        CHANNELS 3 Zrotation Xrotation Yrotation
        JOINT RightLegRoll
        {
          OFFSET 0 23.5023 0
          CHANNELS 3 Zrotation Xrotation Yrotation
          JOINT RightFoot
          {
            OFFSET 0 19.5617 0
            CHANNELS 3 Zrotation Xrotation Yrotation
            JOINT RightToeBase
            {
              OFFSET 0 16.3526 0
              CHANNELS 3 Zrotation Xrotation Yrotation
              End Site
              {
                OFFSET 0.00693125 7.91944 -0.912837
              }
            }
          }
        }
      }
    }
  }
  JOINT LeftUpLeg
  {
    OFFSET 7.35773 -1.34921 -1.13182
    CHANNELS 3 Zrotation Xrotation Yrotation
    JOINT LeftUpLegRoll
    {
      OFFSET 0 18.9169 0
      CHANNELS 3 Zrotation Xrotation Yrotation
      JOINT LeftLeg
      {
        OFFSET 0 23.4255 0
        CHANNELS 3 Zrotation Xrotation Yrotation
        JOINT LeftLegRoll
        {
          OFFSET 0 23.7195 0
          CHANNELS 3 Zrotation Xrotation Yrotation
          JOINT LeftFoot
          {
            OFFSET 0 19.3444 0
            CHANNELS 3 Zrotation Xrotation Yrotation
            JOINT LeftToeBase
            {
              OFFSET 0 16.3526 0
              CHANNELS 3 Zrotation Xrotation Yrotation
              End Site
              {
                OFFSET -0.0310629 7.91944 -0.912836
              }
            }
          }
        }
      }
    }
  }
}
MOTION
Frames: 12
Frame Time: 0.00208333
31.6363 96.792 -15.2228 -1.76539 1.26228 7.66063 0.45317 -0.179101 0.205479 0.90665 3.6459 0.353426 0.903676 5.29084 0.33856 -1.23502 8.17823 -4.35898 1.66834 -7.86678 -4.36375 66.1388 -2.89934 -2.43354 99.5566 16.7101 17.2476 1.76241e-006 -2.25705e-006 8.57219e-007 14.7164 13.0646 -1.94384 -5.51313e-006 -7.3641e-007 -3.00012 8.02931 -4.95141 0.697668 -61.2775 1.87439 -0.775893 -99.3326 15.0412 -6.7551 1.57532e-006 1.36505e-006 -2.1468e-006 -13.4239 25.6336 3.83508 4.16551e-006 4.38248e-006 3.00775 -8.02903 -4.95146 -0.697665 171.29 15.6516 8.45515 180 7.01523e-015 178.823 173.102 36.7949 -179.16 -7.69449e-007 -5.43512e-006 0.584072 -18.9092 68.5535 20.0544 8.52135 38.2827 -1.53593 -163.665 17.9333 -11.7271 4.54188e-006 -4.6773e-006 -1.32838 -5.05418 -37.2491 -0.572663 6.61536e-008 -1.14451e-006 -0.754061 18.2423 67.5601 -19.2267 -7.82124 30.37 -3.18753 
31.6561 96.3174 -15.3081 -1.78684 1.32757 7.68524 0.458252 -0.170662 0.206012 0.916804 3.66278 0.353781 0.913845 5.30772 0.338744 -1.31108 8.13873 -4.37148 1.75578 -7.94594 -4.3753 66.1436 -2.88732 -2.42743 99.578 16.7901 17.2437 1.76241e-006 -2.25705e-006 8.57219e-007 14.672 13.1362 -1.95259 -5.51313e-006 -7.3641e-007 -3.00012 8.02931 -4.95141 0.697668 -61.3548 1.88454 -0.770358 -99.2897 15.167 -6.80675 1.57532e-006 1.36505e-006 -2.1468e-006 -13.3738 25.6429 3.83225 4.16551e-006 4.38248e-006 3.00775 -8.02903 -4.95146 -0.697665 171.133 16.1085 8.70955 180 7.01524e-015 178.828 172.982 37.7765 -179.067 -7.69449e-007 -5.43513e-006 0.610843 -19.1216 68.8448 20.2969 8.51241 39.0555 -1.41729 -163.48 18.4019 -11.99 4.54188e-006 -4.6773e-006 -1.32224 -5.08872 -38.1431 -0.62938 6.61537e-008 -1.14452e-006 -0.797305 18.4334 67.8503 -19.4478 -7.76026 30.6577 -3.59813 
31.6565 96.0024 -15.3525 -1.80643 1.39443 7.70668 0.463458 -0.162239 0.205222 0.927215 3.67962 0.35147 0.924303 5.32456 0.336258 -1.41274 8.11421 -4.37507 1.86358 -8.04125 -4.37955 66.1413 -2.86805 -2.41681 99.6122 16.8938 17.2526 1.76241e-006 -2.25705e-006 8.57219e-007 14.607 13.1598 -1.95162 -5.51313e-006 -7.3641e-007 -3.00011 8.02931 -4.95141 0.697668 -61.4603 1.89929 -0.763303 -99.2186 15.2892 -6.87625 1.57532e-006 1.36505e-006 -2.1468e-006 -13.3222 25.6485 3.82912 4.16551e-006 4.38248e-006 3.00775 -8.02903 -4.95146 -0.697665 170.976 16.5658 8.9631 180 7.01526e-015 178.835 172.859 38.7431 -178.967 -7.69449e-007 -5.43514e-006 0.640231 -19.38 69.1952 20.5949 8.50425 39.6711 -1.32809 -163.297 18.877 -12.2469 4.54188e-006 -4.6773e-006 -1.31525 -5.11378 -39.0441 -0.686005 6.6154e-008 -1.14452e-006 -0.845581 18.6603 68.1924 -19.7138 -7.70875 30.8829 -3.92401 
31.6592 95.5948 -15.4674 -1.82385 1.46279 7.7246 0.468782 -0.153825 0.20292 0.937874 3.69643 0.34612 0.935046 5.34137 0.330724 -1.54319 8.10679 -4.36853 1.99428 -8.15452 -4.37551 66.1307 -2.84069 -2.40111 99.661 17.0238 17.2756 1.76241e-006 -2.25705e-006 8.57219e-007 14.5189 13.1303 -1.93984 -5.51313e-006 -7.3641e-007 -3.00011 8.02931 -4.95141 0.697668 -61.5972 1.91919 -0.754558 -99.1156 15.4069 -6.9654 1.57532e-006 1.36505e-006 -2.1468e-006 -13.2691 25.6507 3.82576 4.16551e-006 4.38248e-006 3.00775 -8.02903 -4.95146 -0.697665 170.821 17.0219 9.21478 180 7.01528e-015 178.842 172.733 39.6898 -178.86 -7.69449e-007 -5.43515e-006 0.672462 -19.6939 69.6105 20.9592 8.49985 40.1048 -1.27445 -163.118 19.3581 -12.496 4.54188e-006 -4.6773e-006 -1.30737 -5.12773 -39.951 -0.742116 6.61542e-008 -1.14453e-006 -0.899336 18.9299 68.5912 -20.033 -7.67144 31.0371 -4.15019 
31.658 95.253 -15.5127 -1.83931 1.53508 7.7391 0.47438 -0.145835 0.198725 0.949094 3.71238 0.336952 0.946397 5.35731 0.321358 -1.70972 8.11976 -4.3504 2.15429 -8.29024 -4.36226 66.1123 -2.80264 -2.37897 99.722 17.1807 17.3125 1.76241e-006 -2.25705e-006 8.57219e-007 14.4105 13.0429 -1.91657 -5.51313e-006 -7.3641e-007 -3.0001 8.02931 -4.95141 0.697668 -61.7734 1.94496 -0.743427 -98.9715 15.5205 -7.07581 1.57532e-006 1.36505e-006 -2.1468e-006 -13.2164 25.6504 3.82279 4.16551e-006 4.38248e-006 3.00775 -8.02903 -4.95146 -0.697665 170.661 17.4863 9.47013 180 7.0153e-015 178.851 172.6 40.6336 -178.741 -7.6945e-007 -5.43517e-006 0.708472 -20.0854 70.1068 21.4143 8.50076 40.3616 -1.25634 -162.937 19.8551 -12.7427 4.54188e-006 -4.6773e-006 -1.29795 -5.13333 -40.8808 -0.801197 6.61545e-008 -1.14454e-006 -0.959826 19.2618 69.0621 -20.4262 -7.64969 31.1229 -4.27917 
31.6423 94.8512 -15.6232 -1.85338 1.61316 7.75071 0.48037 -0.138579 0.192575 0.961119 3.72684 0.323831 0.958601 5.37177 0.308021 -1.91402 8.15309 -4.32103 2.34546 -8.44965 -4.34026 66.0877 -2.75293 -2.35004 99.7913 17.3618 17.3614 1.76241e-006 -2.25705e-006 8.57219e-007 14.2866 12.9003 -1.88261 -5.51313e-006 -7.3641e-007 -3.0001 8.02931 -4.95141 0.697668 -61.9912 1.97655 -0.729594 -98.7834 15.6317 -7.20657 1.57532e-006 1.36505e-006 -2.1468e-006 -13.1655 25.6479 3.82056 4.16551e-006 4.38248e-006 3.00775 -8.02903 -4.95146 -0.697665 170.491 17.967 9.73465 180 7.01533e-015 178.862 172.456 41.5922 -178.608 -7.6945e-007 -5.43518e-006 0.748683 -20.5734 70.6889 21.9803 8.50676 40.4737 -1.26787 -162.75 20.3754 -12.9929 4.54188e-006 -4.67731e-006 -1.28658 -5.13493 -41.8475 -0.866654 6.61547e-008 -1.14455e-006 -1.02746 19.6728 69.6104 -20.9099 -7.64138 31.1533 -4.32891 
31.6466 94.4829 -15.6791 -1.86617 1.6961 7.75965 0.486697 -0.131896 0.18476 0.973834 3.74014 0.307342 0.971537 5.38507 0.291301 -2.15086 8.20392 -4.28188 2.56349 -8.62961 -4.31061 66.0577 -2.69323 -2.31528 99.8684 17.5651 17.4218 1.76241e-006 -2.25705e-006 8.57219e-007 14.148 12.7084 -1.83907 -5.51313e-006 -7.3641e-007 -3.00009 8.02931 -4.95141 0.697668 -62.2449 2.01325 -0.713463 -98.5575 15.7407 -7.35578 1.57532e-006 1.36505e-006 -2.1468e-006 -13.1154 25.6427 3.81875 4.16551e-006 4.38248e-006 3.00775 -8.02903 -4.95146 -0.697665 170.311 18.4614 10.0072 180 7.01536e-015 178.875 172.299 42.5624 -178.46 -7.6945e-007 -5.43519e-006 0.792556 -21.1662 71.3447 22.6636 8.51744 40.4574 -1.30593 -162.557 20.9152 -13.2462 4.54188e-006 -4.67731e-006 -1.27355 -5.1332 -42.8451 -0.937906 6.61549e-008 -1.14455e-006 -1.1014 20.1674 70.2255 -21.4878 -7.64531 31.1345 -4.3079 
31.5704 94.1086 -15.7283 -1.87781 1.78298 7.76616 0.493305 -0.125624 0.175572 0.987126 3.7526 0.288072 0.985083 5.39753 0.271788 -2.41505 8.26938 -4.23441 2.80408 -8.827 -4.27438 66.0229 -2.6252 -2.27564 99.9525 17.7882 17.4929 1.76241e-006 -2.25705e-006 8.57219e-007 13.9956 12.4729 -1.78709 -5.51313e-006 -7.3641e-007 -3.00009 8.02931 -4.95141 0.697668 -62.5291 2.0544 -0.695437 -98.2998 15.848 -7.52152 1.57532e-006 1.36505e-006 -2.1468e-006 -13.0654 25.6345 3.81706 4.16551e-006 4.38248e-006 3.00775 -8.02903 -4.95146 -0.697665 170.123 18.9666 10.2865 180 7.01539e-015 178.889 172.132 43.5407 -178.299 -7.6945e-007 -5.43521e-006 0.83955 -21.8742 72.0621 23.4729 8.53194 40.3289 -1.36715 -162.358 21.4709 -13.5022 4.54188e-006 -4.67731e-006 -1.25915 -5.1287 -43.8678 -1.01434 6.6155e-008 -1.14456e-006 -1.18082 20.7517 70.8965 -22.1645 -7.65987 31.0726 -4.22491 
31.5777 93.7399 -15.8022 -1.88844 1.87289 7.77047 0.500137 -0.119601 0.165301 1.00088 3.76456 0.266609 0.999119 5.40949 0.250071 -2.70138 8.34662 -4.18009 3.06294 -9.03871 -4.23268 65.9841 -2.5505 -2.23208 100.043 18.029 17.574 1.76241e-006 -2.25705e-006 8.57219e-007 13.8303 12.1994 -1.72778 -5.51313e-006 -7.3641e-007 -3.00009 8.02931 -4.95141 0.697668 -62.8382 2.0993 -0.675919 -98.0167 15.9539 -7.70188 1.57532e-006 1.36505e-006 -2.1468e-006 -13.0146 25.6228 3.8152 4.16551e-006 4.38248e-006 3.00775 -8.02903 -4.95146 -0.697665 169.929 19.4799 10.5715 180 7.01543e-015 178.905 171.953 44.5237 -178.125 -7.69451e-007 -5.43521e-006 0.889123 -22.71 72.8287 24.4189 8.54915 40.1044 -1.44799 -162.154 22.0388 -13.7603 4.54188e-006 -4.67731e-006 -1.24367 -5.12195 -44.9094 -1.09528 6.6155e-008 -1.14457e-006 -1.2649 21.4326 71.6128 -22.9458 -7.68314 30.9735 -4.08882 
31.609 93.3318 -15.9472 -1.89819 1.96489 7.77279 0.507137 -0.113667 0.154237 1.01498 3.77633 0.243539 1.01352 5.42125 0.226739 -3.00463 8.43276 -4.12037 3.33574 -9.26161 -4.18658 65.942 -2.47078 -2.18555 100.139 18.2853 17.6644 1.76241e-006 -2.25705e-006 8.57219e-007 13.6527 11.8939 -1.66228 -5.51313e-006 -7.3641e-007 -3.00008 8.02931 -4.95141 0.697668 -63.1667 2.14726 -0.655311 -97.714 16.0588 -7.89493 1.57532e-006 1.36505e-006 -2.1468e-006 -12.9623 25.6071 3.81284 4.16551e-006 4.38248e-006 3.00775 -8.02903 -4.95146 -0.697665 169.729 19.9985 10.8608 180 7.01546e-015 178.921 171.765 45.5081 -177.941 -7.69451e-007 -5.43522e-006 0.940737 -23.6879 73.632 25.5143 8.56784 39.8 -1.54486 -161.947 22.6153 -14.0198 4.54188e-006 -4.67731e-006 -1.22739 -5.11333 -45.9641 -1.18 6.6155e-008 -1.14457e-006 -1.35278 22.2178 72.3634 -23.8381 -7.71309 30.8431 -3.9086 
31.6104 92.9905 -15.9914 -1.90718 2.05806 7.77337 0.514249 -0.107658 0.142672 1.02931 3.78824 0.219448 1.02817 5.43317 0.202382 -3.31957 8.52494 -4.05673 3.61815 -9.49257 -4.13718 65.8972 -2.38771 -2.13702 100.241 18.555 17.7635 1.76241e-006 -2.25705e-006 8.57219e-007 13.4638 11.562 -1.59169 -5.51313e-006 -7.3641e-007 -3.00008 8.02931 -4.95141 0.697668 -63.509 2.19761 -0.634018 -97.3982 16.1632 -8.09874 1.57532e-006 1.36505e-006 -2.1468e-006 -12.9076 25.5868 3.80969 4.16551e-006 4.38248e-006 3.00775 -8.02903 -4.95146 -0.697665 169.525 20.5197 11.153 180 7.0155e-015 178.938 171.568 46.4906 -177.746 -7.69451e-007 -5.43523e-006 0.99385 -24.8237 74.4596 26.7729 8.58684 39.4321 -1.65423 -161.736 23.1967 -14.2802 4.54188e-006 -4.67731e-006 -1.21062 -5.1031 -47.026 -1.26769 6.61549e-008 -1.14457e-006 -1.44366 23.1153 73.1373 -24.8484 -7.74766 30.6872 -3.69322 
31.6373 92.5959 -16.0571 -1.91555 2.15149 7.77241 0.521414 -0.101414 0.130895 1.04376 3.80063 0.194924 1.04293 5.44555 0.177588 -3.64095 8.6203 -3.99064 3.90581 -9.72847 -4.08557 65.8505 -2.30294 -2.08744 100.347 18.8357 17.8706 1.76241e-006 -2.25705e-006 8.57219e-007 13.2643 11.2094 -1.51711 -5.51313e-006 -7.3641e-007 -3.00007 8.02931 -4.95141 0.697668 -63.8596 2.24965 -0.612441 -97.0752 16.2675 -8.3114 1.57532e-006 1.36505e-006 -2.1468e-006 -12.8498 25.5617 3.80543 4.16551e-006 4.38248e-006 3.00775 -8.02903 -4.95146 -0.697665 169.318 21.0407 11.447 180 7.01554e-015 178.955 171.362 47.4676 -177.542 -7.69451e-007 -5.43523e-006 1.04792 -26.1341 75.2988 28.2098 8.60512 39.0167 -1.77264 -161.524 23.7795 -14.5406 4.54188e-006 -4.67731e-006 -1.19363 -5.09139 -48.0892 -1.35741 6.61548e-008 -1.14457e-006 -1.53669 24.1331 73.9239 -25.9832 -7.78489 30.512 -3.45159 
